<?xml version="1.0" encoding="utf-8"?>
<!-- Generator: Adobe Illustrator 17.0.0, SVG Export Plug-In . SVG Version: 6.00 Build 0)  -->
<!DOCTYPE svg PUBLIC "-//W3C//DTD SVG 1.1//EN" "http://www.w3.org/Graphics/SVG/1.1/DTD/svg11.dtd">
<svg version="1.1" id="Capa_1" xmlns="http://www.w3.org/2000/svg" xmlns:xlink="http://www.w3.org/1999/xlink" x="0px" y="0px"
	 width="800px" height="300px" viewBox="0 0 800 300" enable-background="new 0 0 800 300" xml:space="preserve">
<g>
	<g>
		<path fill="#919191" d="M129.485,186.693c4.954,0,9.476-1.009,13.567-3.025c4.09-2.016,7.604-4.723,10.543-8.124
			c2.937-3.398,5.241-7.258,6.912-11.579c1.67-4.321,2.506-8.785,2.506-13.394c0-4.723-0.777-9.274-2.333-13.653
			c-1.556-4.379-3.743-8.267-6.567-11.665c-2.822-3.398-6.221-6.107-10.196-8.124c-3.975-2.016-8.323-3.024-13.048-3.024
			c-3.572,0-6.913,0.605-10.023,1.814c-3.111,1.209-5.991,2.853-8.64,4.925c-2.649,2.074-5.012,4.463-7.086,7.172
			c-2.074,2.708-3.803,5.56-5.184,8.555v27.995c0.462,3.111,1.7,6.019,3.715,8.728c2.016,2.707,4.436,5.041,7.258,6.998
			c2.823,1.96,5.876,3.514,9.159,4.667C123.349,186.117,126.49,186.693,129.485,186.693 M132.25,197.063
			c-7.142,0-13.681-1.786-19.614-5.358c-5.934-3.572-10.571-8.179-13.911-13.825v17.455H88.183V69.176h11.753v54.956
			c4.034-6.107,8.87-11.032,14.516-14.776c5.646-3.746,12.212-5.616,19.7-5.616c6.338,0,12.011,1.325,17.023,3.975
			c5.012,2.649,9.276,6.193,12.79,10.628c3.514,4.435,6.221,9.448,8.121,15.035c1.9,5.588,2.851,11.32,2.851,17.196
			c0,6.338-1.095,12.329-3.284,17.974c-2.189,5.646-5.184,10.571-8.987,14.776c-3.802,4.205-8.323,7.545-13.567,10.023
			C143.859,195.825,138.243,197.063,132.25,197.063z"/>
		<path fill="#919191" d="M225.6,197.1c-7.725,0-15.336-1.24-22.83-3.717c-7.495-2.48-13.837-6.084-19.025-10.81l9.858-16.949
			c5.534,3.805,10.926,6.745,16.171,8.819c5.246,2.075,10.291,3.114,15.133,3.114c3.575,0,6.342-0.636,8.302-1.903
			c1.961-1.269,2.942-3.113,2.942-5.536c0-2.42-1.24-4.352-3.72-5.794c-2.48-1.442-6.833-2.97-13.059-4.583
			c-6.112-1.731-11.272-3.401-15.479-5.017c-4.209-1.614-7.639-3.401-10.291-5.362c-2.652-1.96-4.555-4.208-5.708-6.744
			c-1.154-2.537-1.731-5.536-1.731-8.994c0-4.612,0.923-8.82,2.768-12.625c1.845-3.806,4.381-7.033,7.611-9.686
			c3.23-2.652,7.063-4.727,11.502-6.226s9.253-2.248,14.442-2.248c6.804,0,13.173,0.923,19.113,2.768
			c5.938,1.845,11.674,5.188,17.209,10.031l-10.724,16.605c-5.189-3.575-9.801-6.17-13.837-7.783
			c-4.036-1.614-7.956-2.422-11.761-2.422c-2.998,0-5.536,0.605-7.611,1.816c-2.075,1.211-3.114,3.142-3.114,5.794
			c0,2.537,1.125,4.439,3.372,5.708c2.249,1.269,6.428,2.652,12.539,4.151c6.457,1.731,11.905,3.459,16.345,5.189
			c4.439,1.731,8.042,3.661,10.81,5.794c2.768,2.133,4.785,4.585,6.054,7.352c1.269,2.768,1.902,6.054,1.902,9.858
			c0,8.993-3.344,16.142-10.033,21.447C246.066,194.448,237.014,197.1,225.6,197.1"/>
		<polygon fill="#919191" points="20.58,158.717 75.144,195.108 75.144,174.227 39.894,149.86 75.144,125.695 75.144,104.814 
			20.58,140.98 		"/>
		<polygon fill="#919191" points="326.094,158.717 271.528,195.108 271.528,174.227 306.782,149.86 271.528,125.695 
			271.528,104.814 326.094,140.98 		"/>
	</g>
</g>
<text transform="matrix(1 0 0 1 202.448 47)" display="none" enable-background="new    " font-family="'Bahnschrift'" font-size="12">Bahnschrift</text>
<g>
	<path fill="#FF5733" d="M366.914,61.486c5.43-0.873,12.509-1.357,19.976-1.357c12.412,0,20.46,2.23,26.763,6.982
		c6.787,5.042,11.055,13.091,11.055,24.63c0,12.509-4.558,21.14-10.86,26.473c-6.886,5.722-17.358,8.437-30.158,8.437
		c-7.661,0-13.091-0.485-16.776-0.97V61.486z M381.75,114.819c1.261,0.291,3.297,0.291,5.14,0.291
		c13.381,0.097,22.109-7.273,22.109-22.885c0.097-13.576-7.854-20.751-20.558-20.751c-3.297,0-5.43,0.291-6.691,0.582V114.819z"/>
	<path fill="#FF5733" d="M448.079,109.195l-4.654,16.776h-15.321l19.976-65.357h19.395l20.267,65.357h-15.903l-5.042-16.776H448.079
		z M464.661,98.141l-4.073-13.867c-1.163-3.879-2.327-8.728-3.297-12.606h-0.193c-0.97,3.878-1.939,8.824-3.006,12.606
		l-3.879,13.867H464.661z"/>
	<path fill="#FF5733" d="M501.026,73.025h-17.552V60.613h50.23v12.412h-17.842v52.945h-14.837V73.025z"/>
	<path fill="#FF5733" d="M598.579,92.613c0,21.43-12.994,34.424-32.097,34.424c-19.395,0-30.74-14.643-30.74-33.261
		c0-19.588,12.51-34.23,31.807-34.23C587.621,59.546,598.579,74.577,598.579,92.613z M551.354,93.486
		c0,12.8,6.013,21.818,15.903,21.818c9.987,0,15.709-9.503,15.709-22.206c0-11.733-5.624-21.818-15.806-21.818
		C557.173,71.28,551.354,80.783,551.354,93.486z"/>
	<path fill="#FF5733" d="M608.762,110.747c3.976,2.036,10.085,4.073,16.388,4.073c6.788,0,10.376-2.813,10.376-7.079
		c0-4.073-3.103-6.4-10.958-9.212c-10.86-3.782-17.938-9.794-17.938-19.297c0-11.151,9.309-19.685,24.727-19.685
		c7.37,0,12.8,1.552,16.679,3.297l-3.297,11.927c-2.618-1.26-7.272-3.103-13.673-3.103c-6.399,0-9.503,2.909-9.503,6.303
		c0,4.17,3.686,6.012,12.121,9.212c11.54,4.267,16.97,10.279,16.97,19.491c0,10.958-8.436,20.267-26.375,20.267
		c-7.467,0-14.837-1.939-18.521-3.976L608.762,110.747z"/>
	<path fill="#FF5733" d="M414.914,221.639c-2.716,1.358-8.824,2.813-16.776,2.813c-22.594,0-34.23-14.061-34.23-32.679
		c0-22.303,15.903-34.715,35.685-34.715c7.66,0,13.479,1.551,16.097,2.909l-3.006,11.732c-3.006-1.26-7.176-2.424-12.412-2.424
		c-11.733,0-20.848,7.079-20.848,21.624c0,13.091,7.757,21.334,20.945,21.334c4.46,0,9.406-0.97,12.315-2.134L414.914,221.639z"/>
	<path fill="#FF5733" d="M481.532,190.124c0,21.43-12.994,34.424-32.097,34.424c-19.395,0-30.74-14.643-30.74-33.261
		c0-19.588,12.51-34.229,31.807-34.229C470.574,157.058,481.532,172.088,481.532,190.124z M434.308,190.997
		c0,12.8,6.013,21.817,15.903,21.817c9.987,0,15.709-9.503,15.709-22.206c0-11.733-5.624-21.817-15.806-21.817
		C440.126,168.791,434.308,178.294,434.308,190.997z"/>
	<path fill="#FF5733" d="M505.971,223.481l-20.945-65.357h16.193l7.952,27.637c2.229,7.757,4.267,15.224,5.817,23.369h0.291
		c1.648-7.854,3.686-15.612,5.915-23.079l8.34-27.927h15.709l-22.012,65.357H505.971z"/>
	<path fill="#FF5733" d="M567.062,158.124v65.357h-14.836v-65.357H567.062z"/>
	<path fill="#FF5733" d="M579.861,158.997c5.43-0.873,12.509-1.358,19.976-1.358c12.412,0,20.46,2.23,26.764,6.982
		c6.787,5.042,11.055,13.091,11.055,24.63c0,12.509-4.558,21.14-10.861,26.473c-6.885,5.722-17.357,8.437-30.157,8.437
		c-7.66,0-13.091-0.484-16.775-0.97V158.997z M594.697,212.33c1.261,0.291,3.297,0.291,5.14,0.291
		c13.382,0.097,22.108-7.273,22.108-22.885c0.098-13.576-7.854-20.752-20.557-20.752c-3.298,0-5.431,0.291-6.691,0.582V212.33z"/>
	<path fill="#FF5733" d="M670.433,193.13v9.794h-25.406v-9.794H670.433z"/>
	<path fill="#FF5733" d="M696.227,173.542h-0.194l-12.023,5.722l-2.425-11.055l16.679-7.758h12.219v63.03h-14.255V173.542z"/>
	<path fill="#FF5733" d="M735.889,212.814c1.842,0.194,3.49,0.194,6.399,0c4.461-0.291,9.019-1.551,12.412-3.879
		c4.073-2.812,6.788-6.885,7.952-11.636l-0.291-0.097c-2.813,2.908-6.885,4.557-12.606,4.557c-10.666,0-19.685-7.466-19.685-19.685
		c0-12.314,9.891-22.69,23.758-22.69c16.193,0,23.854,12.412,23.854,27.151c0,13.091-4.17,22.69-11.055,28.994
		c-6.013,5.43-14.255,8.436-24.049,8.824c-2.521,0.193-5.042,0.097-6.69,0V212.814z M744.81,181.203
		c0,5.43,2.909,10.084,8.921,10.084c3.977,0,6.788-1.939,8.146-4.169c0.485-0.873,0.776-1.843,0.776-3.686
		c0-6.69-2.521-13.284-9.213-13.284C748.397,170.148,744.713,174.608,744.81,181.203z"/>
</g>
</svg>
