<?xml version="1.0" encoding="iso-8859-1"?>
<!-- Generator: Adobe Illustrator 17.0.0, SVG Export Plug-In . SVG Version: 6.00 Build 0)  -->
<!DOCTYPE svg PUBLIC "-//W3C//DTD SVG 1.1//EN" "http://www.w3.org/Graphics/SVG/1.1/DTD/svg11.dtd">
<svg version="1.1" id="Capa_1" xmlns="http://www.w3.org/2000/svg" xmlns:xlink="http://www.w3.org/1999/xlink" x="0px" y="0px"
	 width="800px" height="300px" viewBox="0 0 800 300" style="enable-background:new 0 0 800 300;" xml:space="preserve">
<g>
	<g>
		<path style="fill:#919191;" d="M103.478,189.763c3.678,0,7.036-0.749,10.073-2.246c3.037-1.497,5.646-3.507,7.828-6.032
			c2.181-2.523,3.891-5.389,5.132-8.597c1.24-3.208,1.861-6.523,1.861-9.945c0-3.507-0.577-6.886-1.732-10.137
			s-2.779-6.138-4.876-8.661c-2.095-2.523-4.619-4.534-7.57-6.032c-2.951-1.497-6.18-2.245-9.688-2.245
			c-2.652,0-5.133,0.449-7.442,1.347c-2.31,0.898-4.448,2.118-6.415,3.657c-1.967,1.54-3.721,3.314-5.261,5.325
			s-2.824,4.128-3.849,6.352v20.786c0.343,2.31,1.262,4.469,2.758,6.48c1.497,2.01,3.294,3.743,5.389,5.196
			c2.096,1.455,4.363,2.609,6.8,3.465C98.922,189.335,101.254,189.763,103.478,189.763 M105.531,197.462
			c-5.303,0-10.158-1.326-14.563-3.978c-4.406-2.652-7.849-6.073-10.329-10.265v12.96h-7.827v-93.67h8.726v40.804
			c2.995-4.534,6.586-8.191,10.778-10.971c4.192-2.781,9.067-4.17,14.627-4.17c4.706,0,8.918,0.984,12.639,2.951
			c3.721,1.967,6.887,4.598,9.496,7.891c2.609,3.293,4.619,7.015,6.03,11.163c1.411,4.149,2.117,8.405,2.117,12.768
			c0,4.706-0.813,9.154-2.438,13.345c-1.625,4.192-3.849,7.849-6.673,10.971c-2.823,3.122-6.18,5.602-10.073,7.442
			C114.15,196.543,109.98,197.462,105.531,197.462z"/>
		<path style="fill:#919191;" d="M174.841,197.49c-5.736,0-11.387-0.921-16.951-2.76c-5.565-1.841-10.274-4.517-14.126-8.026
			l7.319-12.584c4.109,2.825,8.112,5.008,12.007,6.548c3.895,1.541,7.641,2.312,11.236,2.312c2.654,0,4.709-0.472,6.164-1.413
			c1.456-0.942,2.184-2.311,2.184-4.11c0-1.797-0.921-3.231-2.762-4.302c-1.841-1.071-5.073-2.205-9.696-3.403
			c-4.538-1.285-8.369-2.525-11.493-3.725c-3.125-1.198-5.672-2.525-7.641-3.981c-1.969-1.455-3.382-3.124-4.238-5.007
			c-0.857-1.884-1.285-4.11-1.285-6.678c0-3.424,0.685-6.549,2.055-9.374c1.37-2.826,3.253-5.222,5.651-7.192
			c2.398-1.969,5.244-3.51,8.54-4.623c3.296-1.113,6.87-1.669,10.723-1.669c5.052,0,9.781,0.685,14.191,2.055
			c4.409,1.37,8.668,3.852,12.777,7.448l-7.962,12.329c-3.853-2.654-7.277-4.581-10.274-5.779s-5.907-1.798-8.732-1.798
			c-2.226,0-4.11,0.449-5.651,1.348c-1.541,0.899-2.312,2.333-2.312,4.302c0,1.884,0.835,3.296,2.504,4.238
			c1.67,0.942,4.773,1.969,9.31,3.082c4.794,1.285,8.839,2.568,12.136,3.853c3.296,1.285,5.971,2.718,8.026,4.302
			c2.055,1.584,3.553,3.404,4.495,5.459c0.942,2.055,1.412,4.495,1.412,7.319c0,6.677-2.483,11.985-7.449,15.924
			C190.037,195.521,183.316,197.49,174.841,197.49"/>
		<polygon style="fill:#919191;" points="22.618,168.991 63.131,196.011 63.131,180.507 36.958,162.415 63.131,144.473 
			63.131,128.969 22.618,155.822 		"/>
		<polygon style="fill:#919191;" points="249.456,168.991 208.942,196.011 208.942,180.507 235.117,162.415 208.942,144.473 
			208.942,128.969 249.456,155.822 		"/>
	</g>
	<g>
		<path style="fill:#FF5733;" d="M303.665,131.366c0,0-1.461-0.854-4.383-2.564c-2.922-1.71-5.187-4.134-6.794-7.273
			c-1.608-3.139-2.411-6.775-2.411-10.909V95.348c0-4.134,0.804-7.77,2.411-10.909c1.608-3.139,3.872-5.569,6.794-7.292
			c2.922-1.723,6.309-2.583,10.162-2.583c3.19,0,6.124,0.682,8.804,2.047c2.679,1.365,4.919,3.298,6.717,5.799
			c1.8,2.501,3.018,5.398,3.655,8.689h-8c-0.485-1.735-1.295-3.286-2.43-4.651c-1.136-1.365-2.469-2.418-4-3.158
			c-1.531-0.74-3.113-1.11-4.747-1.11c-2.271,0-4.262,0.549-5.971,1.646s-3.037,2.635-3.981,4.613
			c-0.944,1.978-1.417,4.28-1.417,6.909v15.273c0,2.603,0.473,4.9,1.417,6.89c0.944,1.99,2.271,3.527,3.981,4.613
			c1.71,1.084,3.7,1.627,5.971,1.627c1.658,0,3.247-0.345,4.766-1.034c1.519-0.689,2.845-1.71,3.981-3.062
			c1.136-1.352,1.946-2.96,2.43-4.823h8c-0.638,3.292-1.863,6.188-3.675,8.689c-1.812,2.501-4.057,4.433-6.737,5.799
			c-2.68,1.366-5.601,2.047-8.766,2.047C305.591,131.366,303.665,131.366,303.665,131.366z"/>
		<path style="fill:#FF5733;" d="M346.343,128.821c-2.96-1.697-5.25-4.096-6.871-7.196c-1.62-3.1-2.43-6.692-2.43-10.775V95.08
			c0-4.083,0.81-7.675,2.43-10.775c1.62-3.1,3.91-5.499,6.871-7.196c2.96-1.697,6.38-2.545,10.258-2.545s7.298,0.848,10.258,2.545
			s5.25,4.096,6.871,7.196c1.62,3.1,2.43,6.692,2.43,10.775v15.77c0,4.083-0.81,7.675-2.43,10.775c-1.62,3.1-3.91,5.499-6.871,7.196
			c-2.961,1.697-6.38,2.545-10.258,2.545S349.304,130.518,346.343,128.821z M362.669,122.123c1.748-1.034,3.1-2.501,4.057-4.402
			c0.957-1.901,1.436-4.102,1.436-6.603V94.812c0-2.501-0.479-4.701-1.436-6.603c-0.957-1.901-2.309-3.368-4.057-4.402
			c-1.748-1.034-3.77-1.551-6.067-1.551s-4.318,0.517-6.067,1.551c-1.748,1.034-3.1,2.501-4.057,4.402
			c-0.957,1.901-1.436,4.102-1.436,6.603v16.306c0,2.501,0.479,4.701,1.436,6.603c0.957,1.901,2.309,3.368,4.057,4.402
			s3.77,1.551,6.067,1.551S360.921,123.157,362.669,122.123z"/>
		<path style="fill:#FF5733;" d="M383.052,75.138h8.498l13.358,43.636l13.358-43.636h8.498l-18.143,55.655h-7.426L383.052,75.138z"
			/>
		<path style="fill:#FF5733;" d="M442.993,130.793h-7.809V75.138h7.809L442.993,130.793L442.993,130.793z"/>
		<path style="fill:#FF5733;" d="M456.773,75.138h7.809v55.655h-7.809V75.138z M462.056,123.367h12.594
			c4.109,0,7.292-1.065,9.55-3.196c2.258-2.131,3.387-5.136,3.387-9.015V94.773c0-3.879-1.129-6.884-3.387-9.015
			c-2.258-2.131-5.442-3.196-9.55-3.196h-12.594v-7.426h12.364c4.466,0,8.28,0.778,11.445,2.335s5.576,3.828,7.234,6.813
			c1.658,2.985,2.488,6.583,2.488,10.794v15.77c0,4.211-0.829,7.809-2.488,10.794c-1.658,2.985-4.077,5.256-7.253,6.813
			c-3.177,1.557-6.999,2.335-11.464,2.335h-12.326V123.367z"/>
		<path style="fill:#FF5733;" d="M533.174,107.137v7.426h-25.722v-7.426H533.174z"/>
		<path style="fill:#FF5733;" d="M556.944,130.793h-7.809V83.636l-7.924,4.862V80.42l7.924-5.283h7.809V130.793z"/>
		<path style="fill:#FF5733;" d="M589.288,103.156l-0.038,1.378c-0.638,1.174-1.601,2.035-2.89,2.583s-2.813,0.823-4.574,0.823
			c-2.654,0-4.988-0.676-7.005-2.028c-2.016-1.352-3.579-3.259-4.689-5.722c-1.11-2.462-1.665-5.314-1.665-8.555v-0.038
			c0-3.598,0.607-6.673,1.819-9.224s2.985-4.491,5.321-5.818s5.136-1.99,8.402-1.99s6.06,0.676,8.383,2.028
			c2.322,1.352,4.09,3.317,5.302,5.894c1.212,2.577,1.819,5.678,1.819,9.301v0.038c0,1.99-0.255,4.115-0.766,6.373
			c-0.511,2.258-1.237,4.498-2.181,6.717c-0.153,0.331-0.306,0.67-0.459,1.015c-0.153,0.345-0.319,0.682-0.498,1.015l-11.866,23.846
			h-8.421L589.288,103.156z M589.652,98.334c1.34-1.658,2.009-3.994,2.009-7.005V91.29c0-2.935-0.67-5.206-2.009-6.813
			c-1.34-1.608-3.234-2.411-5.684-2.411c-2.476,0-4.383,0.804-5.722,2.411s-2.009,3.891-2.009,6.851v0.038
			c0,3.012,0.67,5.34,2.009,6.985c1.34,1.646,3.247,2.469,5.722,2.469C586.418,100.822,588.313,99.993,589.652,98.334z"/>
		<path style="fill:#FF5733;" d="M291.225,169.207h7.809v55.655h-7.809L291.225,169.207L291.225,169.207z M295.015,169.207h31.961
			v7.426h-31.961V169.207z M295.015,193.514h27.75v7.426h-27.75V193.514z M295.015,217.437h31.961v7.426h-31.961V217.437z"/>
		<path style="fill:#FF5733;" d="M350.784,225.437c0,0-1.199-0.255-3.598-0.766c-2.399-0.511-4.638-1.276-6.717-2.296
			c-2.08-1.021-4.025-2.296-5.837-3.828l4.862-5.971c2.118,1.838,4.452,3.215,7.005,4.134c2.552,0.919,5.321,1.378,8.306,1.378
			c4.032,0,7.158-0.747,9.377-2.239c2.22-1.493,3.33-3.604,3.33-6.335v-0.038c0-1.94-0.504-3.477-1.512-4.613
			c-1.008-1.136-2.309-1.978-3.904-2.526c-1.595-0.549-3.655-1.053-6.181-1.512c-0.077-0.025-0.159-0.038-0.249-0.038
			c-0.09,0-0.172-0.013-0.249-0.038l-0.574-0.115c-3.726-0.638-6.756-1.359-9.091-2.162c-2.334-0.804-4.332-2.271-5.99-4.402
			c-1.658-2.131-2.488-5.161-2.488-9.09v-0.038c0-3.445,0.772-6.386,2.315-8.823s3.796-4.293,6.756-5.569
			c2.96-1.276,6.52-1.913,10.679-1.913c1.99,0,3.949,0.217,5.875,0.651c1.926,0.434,3.828,1.078,5.703,1.933
			c1.875,0.854,3.719,1.934,5.531,3.234l-4.44,6.201c-2.118-1.557-4.23-2.724-6.335-3.502s-4.217-1.168-6.335-1.168
			c-3.803,0-6.756,0.759-8.862,2.277c-2.105,1.518-3.158,3.669-3.158,6.449v0.038c0,1.913,0.542,3.42,1.627,4.517
			c1.084,1.097,2.437,1.907,4.057,2.43c1.62,0.523,3.872,1.065,6.756,1.627c0.102,0.025,0.197,0.044,0.287,0.057
			c0.09,0.013,0.185,0.032,0.287,0.057c0.128,0.025,0.268,0.051,0.421,0.077c0.153,0.025,0.293,0.051,0.421,0.077
			c3.368,0.689,6.181,1.505,8.44,2.449s4.147,2.469,5.665,4.574c1.518,2.105,2.277,4.982,2.277,8.632v0.077
			c0,3.393-0.804,6.296-2.411,8.708c-1.608,2.411-3.937,4.249-6.985,5.511c-3.049,1.263-6.731,1.894-11.043,1.894
			C352.124,225.437,350.784,225.437,350.784,225.437z"/>
		<path style="fill:#FF5733;" d="M378.688,169.207h39.272v7.426h-39.272V169.207z M394.42,173.762h7.809v51.1h-7.809V173.762z"/>
		<path style="fill:#FF5733;" d="M437.329,169.207h6.66l20.516,55.655h-8.421l-15.426-44.899l-15.426,44.899h-8.421L437.329,169.207
			z M426.267,205.227h29.282v7.426h-29.282V205.227z"/>
		<path style="fill:#FF5733;" d="M472.926,169.207h7.809v55.655h-7.809L472.926,169.207L472.926,169.207z M478.209,217.437h12.594
			c4.109,0,7.292-1.065,9.55-3.196c2.258-2.131,3.387-5.136,3.387-9.015v-16.383c0-3.879-1.129-6.884-3.387-9.015
			c-2.258-2.131-5.442-3.196-9.55-3.196h-12.594v-7.426h12.364c4.466,0,8.28,0.778,11.445,2.335
			c3.164,1.557,5.576,3.828,7.234,6.813c1.658,2.985,2.488,6.583,2.488,10.794v15.77c0,4.211-0.829,7.809-2.488,10.794
			c-1.659,2.985-4.077,5.256-7.253,6.813c-3.177,1.557-6.999,2.335-11.464,2.335h-12.326L478.209,217.437L478.209,217.437z"/>
		<path style="fill:#FF5733;" d="M531.414,224.862h-7.809v-55.655h7.809V224.862z M523.911,160.863l10.564-9.377l5.053,5.244
			l-11.292,8.652L523.911,160.863z"/>
		<path style="fill:#FF5733;" d="M557.902,225.437c0,0-1.199-0.255-3.598-0.766c-2.399-0.511-4.638-1.276-6.717-2.296
			c-2.08-1.021-4.025-2.296-5.837-3.828l4.862-5.971c2.118,1.838,4.452,3.215,7.005,4.134c2.552,0.919,5.321,1.378,8.306,1.378
			c4.032,0,7.158-0.747,9.377-2.239c2.22-1.493,3.33-3.604,3.33-6.335v-0.038c0-1.94-0.504-3.477-1.512-4.613
			c-1.008-1.136-2.309-1.978-3.904-2.526c-1.595-0.549-3.655-1.053-6.181-1.512c-0.077-0.025-0.159-0.038-0.249-0.038
			c-0.09,0-0.172-0.013-0.249-0.038l-0.574-0.115c-3.726-0.638-6.756-1.359-9.091-2.162c-2.335-0.804-4.332-2.271-5.99-4.402
			c-1.659-2.131-2.488-5.161-2.488-9.09v-0.038c0-3.445,0.772-6.386,2.315-8.823c1.544-2.437,3.796-4.293,6.756-5.569
			c2.96-1.276,6.52-1.913,10.679-1.913c1.99,0,3.949,0.217,5.875,0.651c1.926,0.434,3.828,1.078,5.703,1.933
			c1.875,0.854,3.719,1.934,5.532,3.234l-4.44,6.201c-2.118-1.557-4.23-2.724-6.335-3.502s-4.217-1.168-6.335-1.168
			c-3.803,0-6.756,0.759-8.862,2.277c-2.105,1.518-3.158,3.669-3.158,6.449v0.038c0,1.913,0.542,3.42,1.627,4.517
			c1.084,1.097,2.437,1.907,4.057,2.43c1.62,0.523,3.872,1.065,6.756,1.627c0.102,0.025,0.197,0.044,0.287,0.057
			c0.09,0.013,0.185,0.032,0.287,0.057c0.128,0.025,0.268,0.051,0.421,0.077c0.153,0.025,0.293,0.051,0.421,0.077
			c3.368,0.689,6.181,1.505,8.44,2.449c2.258,0.944,4.147,2.469,5.665,4.574c1.518,2.105,2.277,4.982,2.277,8.632v0.077
			c0,3.393-0.804,6.296-2.411,8.708c-1.608,2.411-3.937,4.249-6.985,5.511c-3.049,1.263-6.731,1.894-11.043,1.894
			C559.241,225.437,557.902,225.437,557.902,225.437z"/>
		<path style="fill:#FF5733;" d="M585.805,169.207h39.272v7.426h-39.272V169.207z M601.537,173.762h7.809v51.1h-7.809V173.762z"/>
		<path style="fill:#FF5733;" d="M640.541,224.862h-7.809v-55.655h7.809V224.862z"/>
		<path style="fill:#FF5733;" d="M666.761,225.437c0,0-1.461-0.854-4.383-2.564c-2.922-1.71-5.187-4.134-6.794-7.273
			s-2.411-6.775-2.411-10.909v-15.273c0-4.134,0.804-7.77,2.411-10.909c1.608-3.139,3.872-5.569,6.794-7.292
			c2.922-1.723,6.309-2.583,10.162-2.583c3.19,0,6.124,0.682,8.804,2.047c2.679,1.365,4.919,3.298,6.717,5.799
			c1.799,2.501,3.018,5.398,3.655,8.689h-8c-0.485-1.735-1.295-3.286-2.43-4.651c-1.135-1.365-2.469-2.418-4-3.158
			c-1.531-0.74-3.113-1.11-4.747-1.11c-2.271,0-4.261,0.549-5.971,1.646c-1.71,1.097-3.037,2.635-3.981,4.613
			c-0.944,1.978-1.417,4.28-1.417,6.909v15.273c0,2.603,0.473,4.9,1.417,6.89s2.271,3.527,3.981,4.613
			c1.71,1.084,3.7,1.627,5.971,1.627c1.658,0,3.247-0.345,4.766-1.034c1.518-0.689,2.845-1.71,3.981-3.062
			c1.136-1.352,1.946-2.96,2.43-4.823h8c-0.638,3.292-1.863,6.188-3.675,8.689c-1.812,2.501-4.057,4.433-6.737,5.799
			c-2.679,1.365-5.601,2.047-8.766,2.047C668.688,225.437,666.761,225.437,666.761,225.437z"/>
		<path style="fill:#FF5733;" d="M715.68,169.207h6.66l20.516,55.655h-8.421l-15.426-44.899l-15.426,44.899h-8.421L715.68,169.207z
			 M704.618,205.227H733.9v7.426h-29.282V205.227z"/>
		<path style="fill:#FF5733;" d="M760.923,225.437c0,0-1.199-0.255-3.598-0.766c-2.399-0.511-4.638-1.276-6.717-2.296
			c-2.079-1.02-4.025-2.296-5.837-3.828l4.862-5.971c2.118,1.838,4.452,3.215,7.005,4.134c2.552,0.919,5.321,1.378,8.306,1.378
			c4.032,0,7.158-0.747,9.377-2.239c2.22-1.493,3.33-3.604,3.33-6.335v-0.038c0-1.94-0.504-3.477-1.512-4.613
			c-1.008-1.136-2.309-1.978-3.904-2.526c-1.595-0.549-3.655-1.053-6.181-1.512c-0.077-0.025-0.159-0.038-0.249-0.038
			c-0.09,0-0.172-0.013-0.249-0.038l-0.574-0.115c-3.726-0.638-6.756-1.359-9.09-2.162c-2.335-0.804-4.332-2.271-5.99-4.402
			c-1.659-2.131-2.488-5.161-2.488-9.09v-0.038c0-3.445,0.772-6.386,2.315-8.823c1.544-2.437,3.796-4.293,6.756-5.569
			c2.96-1.276,6.52-1.913,10.679-1.913c1.99,0,3.949,0.217,5.875,0.651c1.926,0.434,3.828,1.078,5.703,1.933
			c1.876,0.854,3.719,1.934,5.532,3.234l-4.44,6.201c-2.118-1.557-4.23-2.724-6.335-3.502s-4.217-1.168-6.335-1.168
			c-3.803,0-6.756,0.759-8.862,2.277c-2.105,1.518-3.158,3.669-3.158,6.449v0.038c0,1.913,0.542,3.42,1.627,4.517
			c1.084,1.097,2.437,1.907,4.057,2.43c1.62,0.523,3.872,1.065,6.756,1.627c0.102,0.025,0.197,0.044,0.287,0.057
			s0.185,0.032,0.287,0.057c0.128,0.025,0.268,0.051,0.421,0.077c0.153,0.025,0.293,0.051,0.421,0.077
			c3.368,0.689,6.181,1.505,8.44,2.449s4.147,2.469,5.665,4.574c1.518,2.105,2.277,4.982,2.277,8.632v0.077
			c0,3.393-0.804,6.296-2.411,8.708c-1.608,2.411-3.937,4.249-6.985,5.511c-3.049,1.263-6.731,1.894-11.043,1.894
			C762.263,225.437,760.923,225.437,760.923,225.437z"/>
	</g>
</g>
<text transform="matrix(1 0 0 1 -26 -45)" style="display:none;enable-background:new    ; font-family:'Bahnschrift'; font-size:12;">Bahnschrift</text>
</svg>
