<svg xmlns="http://www.w3.org/2000/svg" viewBox="0 0 168.58 31.69"><defs><style>.cls-1{fill:#fff;}</style></defs><title>Recurso 1</title><g id="Capa_2" data-name="Capa 2"><g id="Layer_1" data-name="Layer 1"><path class="cls-1" d="M99,23.73H96.87V.78h7c5.73,0,7.69,3.31,7.69,6.89s-2,6.88-7.69,6.88H99v9.18Zm0-11.11h5.2c4.31,0,5.14-2.75,5.14-4.95s-.83-5-5.14-5H99ZM119.19,10a13.39,13.39,0,0,0-4.59.77V9a12.35,12.35,0,0,1,4.59-.82c4.59,0,5.79,2.08,5.79,5.14V23.73h-1.2l-.46-1.22A8,8,0,0,1,118.7,24c-4,0-5.35-2.36-5.35-4.93s1.44-4.53,5.45-4.77l4-.25v-.86C122.83,11,122,10,119.19,10Zm-.55,6c-2.17.21-3.12,1.35-3.12,3.12,0,1.38.34,3,3.24,3a7.42,7.42,0,0,0,4.07-1.22V15.59Zm13.07,3.46a1.73,1.73,0,0,0-.58,1.13c0,.77.37,1.1,1.16,1.19l5.2.62c2.88.3,4.2,1.43,4.2,4.1,0,3.73-3.74,5.2-8,5.2s-6.86-1.26-6.86-4.62A4.27,4.27,0,0,1,130,23v0a2.26,2.26,0,0,1-1-2,2.75,2.75,0,0,1,1.16-2.08c-1.83-1-2.45-2.88-2.45-5,0-3.15,1.35-5.76,6-5.76a9.68,9.68,0,0,1,2.45.31h5.2V9.59l-2.57.74a6.32,6.32,0,0,1,.89,3.55c0,3.15-1.35,5.75-6,5.75A10,10,0,0,1,131.71,19.45Zm.89,4.13c-2,.46-3.74,1.41-3.74,3.37,0,2.26,1.72,2.9,4.87,2.9s5.94-.76,5.94-3.36c0-1.56-.74-2.18-2.6-2.39Zm5.11-9.7c0-2-.4-3.89-4-3.89s-4,1.87-4,3.89.4,3.88,4,3.88S137.71,15.9,137.71,13.88Zm11.5-5.75c5.2,0,5.81,3.55,5.81,7.95v1h-10.1c.12,2.66.83,5.08,4.29,5.08a11.6,11.6,0,0,0,5-.86v1.84a12.33,12.33,0,0,1-5,.92c-5.18,0-6.43-3.55-6.43-8S144,8.13,149.21,8.13Zm-4.29,7.19h8c0-2.73-.15-5.3-3.67-5.3S145,12.56,144.92,15.32ZM163.19,15c4.35.4,5.39,1.87,5.39,4.38,0,2.35-1.5,4.71-6.15,4.71a15,15,0,0,1-4.56-.77V21.44a13.65,13.65,0,0,0,4.59.7c3.18,0,4-1.34,4-2.78S166.07,17,163,16.73c-4.44-.4-5.36-2-5.36-4.07s1.41-4.53,5.73-4.53a11.4,11.4,0,0,1,4.4.76v1.84a12.52,12.52,0,0,0-4.43-.71c-3,0-3.68,1.14-3.68,2.64C159.7,14,160.25,14.7,163.19,15Zm-146-4.62H9.69a.34.34,0,0,0-.35.35v3.66a.34.34,0,0,0,.35.35h2.92v4.56a8.93,8.93,0,0,1-2.47.22C8,19.47,5,18.69,5,12.11s3.11-7.45,6-7.45a11.92,11.92,0,0,1,4.31.66A.35.35,0,0,0,15.78,5l.84-3.54a.35.35,0,0,0-.13-.28C16.2,1,14.48,0,10.14,0,5.13,0,0,2.13,0,12.37S5.88,24.13,10.83,24.13a12.22,12.22,0,0,0,6.59-1.75.31.31,0,0,0,.11-.27V10.68A.34.34,0,0,0,17.18,10.33Zm39-9.1a.36.36,0,0,0-.35-.36H51.56a.36.36,0,0,0-.35.36V9.38H44.63V1.23a.35.35,0,0,0-.35-.36H40.06a.36.36,0,0,0-.35.36V23.32a.35.35,0,0,0,.35.35h4.22a.34.34,0,0,0,.35-.35V13.87h6.58v9.45a.35.35,0,0,0,.35.35h4.23a.35.35,0,0,0,.35-.35ZM25.3,4.13a2.72,2.72,0,1,0-2.72,2.75A2.74,2.74,0,0,0,25.3,4.13ZM25,18.66V8.46a.35.35,0,0,0-.35-.35H20.44a.4.4,0,0,0-.36.39V23.11c0,.43.27.56.61.56h3.8c.41,0,.51-.2.51-.56ZM72.51,8.14H68.32a.35.35,0,0,0-.35.35V19.33a4.74,4.74,0,0,1-2.57.77c-1.51,0-1.91-.68-1.91-2.16V8.49a.35.35,0,0,0-.35-.35H58.89a.35.35,0,0,0-.35.35V18.65c0,4.4,2.45,5.48,5.81,5.48a9.82,9.82,0,0,0,5-1.53,8.38,8.38,0,0,0,.15.9.36.36,0,0,0,.31.19h2.7a.35.35,0,0,0,.35-.35V8.49A.35.35,0,0,0,72.51,8.14Zm11.68-.5a7.84,7.84,0,0,0-4,1.07V1.23a.35.35,0,0,0-.34-.36H75.61a.36.36,0,0,0-.35.36V23.32a.35.35,0,0,0,.35.35h2.94a.35.35,0,0,0,.3-.18,6.13,6.13,0,0,0,.18-1,7.57,7.57,0,0,0,5,1.64c3.85,0,6.06-1.95,6.06-8.77S86.57,7.64,84.19,7.64ZM82.54,20.09a5,5,0,0,1-2.44-.7v-7a5.65,5.65,0,0,1,2.16-.7c1.51-.14,3,.32,3,3.92C85.23,19.4,84.57,20.15,82.54,20.09Zm-45.48-12H33.89V3.92c0-.16-.08-.24-.27-.24H29.31c-.17,0-.26.08-.26.24V8.24s-2.16.52-2.31.57a.33.33,0,0,0-.25.33v2.72a.35.35,0,0,0,.35.35h2.21v6.54c0,4.85,3.4,5.33,5.7,5.33a9.88,9.88,0,0,0,2.51-.41.33.33,0,0,0,.2-.32v-3a.35.35,0,0,0-.35-.35c-.19,0-.66.07-1.15.07-1.55,0-2.08-.72-2.08-1.66V12.21h3.17a.35.35,0,0,0,.35-.35V8.46A.35.35,0,0,0,37.06,8.11Z"/></g></g></svg>