<svg xmlns="http://www.w3.org/2000/svg" viewBox="0 0 785.68 171.23"><defs><style>.cls-1{fill:#919191;}.cls-2{fill:#ff5733;}</style></defs><title>Recurso 1</title><g id="Capa_2" data-name="Capa 2"><g id="Capa_1-2" data-name="Capa 1"><path class="cls-1" d="M113,132a31.39,31.39,0,0,0,14.07-3.14A34.34,34.34,0,0,0,138,120.38a41,41,0,0,0,7.17-12,38.3,38.3,0,0,0,2.6-13.9,42.16,42.16,0,0,0-2.42-14.17,39.46,39.46,0,0,0-6.82-12.1A32.9,32.9,0,0,0,128,59.76a29.36,29.36,0,0,0-13.54-3.14,28.58,28.58,0,0,0-10.4,1.88,35.33,35.33,0,0,0-9,5.11,41.43,41.43,0,0,0-7.35,7.44,46.73,46.73,0,0,0-5.38,8.88V109A19.94,19.94,0,0,0,86.21,118a32.08,32.08,0,0,0,7.53,7.26,39.61,39.61,0,0,0,9.5,4.85A29.45,29.45,0,0,0,113,132m2.87,10.76a38.79,38.79,0,0,1-20.36-5.56A41,41,0,0,1,81.09,122.8v18.11H70.15V10h12.2V67A53.61,53.61,0,0,1,97.42,51.69a36.06,36.06,0,0,1,20.44-5.83A37.18,37.18,0,0,1,135.52,50,41.38,41.38,0,0,1,148.8,61a51.74,51.74,0,0,1,8.42,15.6,54.86,54.86,0,0,1,3,17.84,51.2,51.2,0,0,1-3.4,18.66,49.05,49.05,0,0,1-9.33,15.33,44.36,44.36,0,0,1-14.08,10.4A40.42,40.42,0,0,1,115.89,142.71Z"/><path class="cls-1" d="M212.76,142.75a75,75,0,0,1-23.69-3.86,54,54,0,0,1-19.75-11.22l10.23-17.59a84.92,84.92,0,0,0,16.79,9.15,42.46,42.46,0,0,0,15.7,3.24q5.57,0,8.62-2a6.43,6.43,0,0,0,3.05-5.74c0-2.52-1.29-4.52-3.86-6s-7.09-3.08-13.55-4.75-11.7-3.53-16.07-5.21a45.39,45.39,0,0,1-10.68-5.56,18.17,18.17,0,0,1-5.92-7,22.39,22.39,0,0,1-1.8-9.34A29.4,29.4,0,0,1,182.6,53.72a37.7,37.7,0,0,1,11.94-6.46,46.45,46.45,0,0,1,15-2.33,66.3,66.3,0,0,1,19.83,2.87,49.45,49.45,0,0,1,17.86,10.41L236.09,75.44a75.9,75.9,0,0,0-14.36-8.08,32.84,32.84,0,0,0-12.2-2.51,15.4,15.4,0,0,0-7.9,1.89,7,7,0,0,0,.27,11.93q3.49,2,13,4.31a168.47,168.47,0,0,1,17,5.38,45.26,45.26,0,0,1,11.22,6,20.34,20.34,0,0,1,6.28,7.63,24.31,24.31,0,0,1,2,10.23q0,14-10.42,22.25t-28.17,8.26"/><polygon class="cls-1" points="0 102.91 56.62 140.68 56.62 119.01 20.04 93.72 56.62 68.65 56.62 46.98 0 84.51 0 102.91"/><polygon class="cls-1" points="317.05 102.91 260.42 140.68 260.42 119.01 297 93.72 260.42 68.65 260.42 46.98 317.05 84.51 317.05 102.91"/><path class="cls-2" d="M359.41,2A137.69,137.69,0,0,1,380.14.61c12.88,0,21.23,2.31,27.77,7.24,7,5.23,11.47,13.59,11.47,25.56,0,13-4.73,21.94-11.27,27.47-7.14,5.94-18,8.76-31.29,8.76a133.19,133.19,0,0,1-17.41-1V2ZM374.8,57.36a28.44,28.44,0,0,0,5.34.3c13.88.1,22.94-7.55,22.94-23.75.1-14.09-8.15-21.53-21.33-21.53a32.18,32.18,0,0,0-6.95.6Z"/><path class="cls-2" d="M443.64,51.52l-4.83,17.41h-15.9L443.64,1.11h20.12l21,67.82H468.29l-5.23-17.41Zm17.2-11.47-4.22-14.39c-1.21-4-2.42-9.06-3.42-13.08H453c-1,4-2,9.16-3.12,13.08l-4,14.39Z"/><path class="cls-2" d="M498.58,14H480.37V1.11h52.12V14H514V68.93h-15.4V14Z"/><path class="cls-2" d="M599.82,34.32c0,22.23-13.49,35.72-33.31,35.72-20.13,0-31.9-15.2-31.9-34.52,0-20.33,13-35.52,33-35.52C588.44,0,599.82,15.6,599.82,34.32Zm-49,.9c0,13.28,6.24,22.64,16.5,22.64s16.3-9.86,16.3-23c0-12.18-5.83-22.64-16.4-22.64C556.85,12.18,550.81,22,550.81,35.22Z"/><path class="cls-2" d="M610.38,53.13a39.07,39.07,0,0,0,17,4.23c7,0,10.77-2.92,10.77-7.35,0-4.22-3.22-6.64-11.37-9.56-11.27-3.92-18.62-10.16-18.62-20C608.17,8.86,617.83,0,633.83,0a41.6,41.6,0,0,1,17.31,3.42L647.72,15.8a32.24,32.24,0,0,0-14.19-3.22c-6.64,0-9.86,3-9.86,6.54,0,4.33,3.82,6.24,12.58,9.56,12,4.43,17.61,10.67,17.61,20.23,0,11.37-8.76,21-27.37,21-7.75,0-15.4-2-19.22-4.13Z"/><path class="cls-2" d="M409.22,168.21c-2.82,1.41-9.16,2.92-17.41,2.92-23.45,0-35.52-14.59-35.52-33.91,0-23.15,16.5-36,37-36,7.95,0,14,1.61,16.7,3l-3.12,12.18A33,33,0,0,0,394,113.87c-12.17,0-21.63,7.35-21.63,22.44,0,13.59,8.05,22.14,21.73,22.14a38.47,38.47,0,0,0,12.78-2.21Z"/><path class="cls-2" d="M478.35,135.51c0,22.24-13.48,35.72-33.31,35.72-20.12,0-31.9-15.2-31.9-34.52,0-20.32,13-35.52,33-35.52C467,101.19,478.35,116.79,478.35,135.51Zm-49,.9c0,13.29,6.24,22.64,16.51,22.64s16.3-9.86,16.3-23c0-12.18-5.84-22.64-16.4-22.64C435.38,113.37,429.34,123.23,429.34,136.41Z"/><path class="cls-2" d="M503.71,170.12,482,102.3h16.8L507,131c2.32,8.05,4.43,15.8,6,24.25h.3c1.71-8.15,3.83-16.2,6.14-23.95l8.66-29h16.3l-22.85,67.82Z"/><path class="cls-2" d="M567.11,102.3v67.82h-15.4V102.3Z"/><path class="cls-2" d="M580.39,103.2a137.79,137.79,0,0,1,20.73-1.4c12.88,0,21.23,2.31,27.78,7.24,7,5.23,11.47,13.59,11.47,25.56,0,13-4.73,21.94-11.27,27.47-7.15,5.94-18,8.76-31.3,8.76a131.54,131.54,0,0,1-17.41-1V103.2Zm15.4,55.35a28.38,28.38,0,0,0,5.33.3c13.89.1,22.94-7.54,22.94-23.75.11-14.08-8.15-21.53-21.33-21.53a32.07,32.07,0,0,0-6.94.6Z"/><path class="cls-2" d="M674.38,138.63v10.16H648V138.63Z"/><path class="cls-2" d="M701.15,118.3H701l-12.48,5.94L686,112.76l17.3-8.05h12.68v65.41H701.15V118.3Z"/><path class="cls-2" d="M742.31,159.05a36.24,36.24,0,0,0,6.64,0,26.31,26.31,0,0,0,12.88-4A20.34,20.34,0,0,0,770.08,143l-.3-.1c-2.92,3-7.14,4.73-13.08,4.73-11.07,0-20.43-7.75-20.43-20.43s10.27-23.54,24.66-23.54c16.8,0,24.75,12.88,24.75,28.17,0,13.59-4.33,23.55-11.47,30.09-6.24,5.64-14.8,8.76-25,9.16a53.05,53.05,0,0,1-6.94,0v-12Zm9.26-32.8c0,5.63,3,10.46,9.26,10.46a9.65,9.65,0,0,0,8.45-4.32,7.28,7.28,0,0,0,.8-3.83c0-6.94-2.61-13.78-9.56-13.78C755.29,114.78,751.47,119.41,751.57,126.25Z"/></g></g></svg>